<svg xmlns="http://www.w3.org/2000/svg" version="1.1" xmlns:xlink="http://www.w3.org/1999/xlink" xmlns:svgjs="http://svgjs.dev/svgjs" width="100%" height="100%" viewBox="0 0 1000 600"><rect width="1000" height="600" x="0" y="0" fill="#14213d"/><g><rect width="333.3333333333333" height="333.3333333333333" rx="13.333333333333334" ry="13.333333333333334" y="253.80787840413302" fill="#13315c" transform="matrix(0.5397571461816795,0,0,0.5397571461816795,0,73.04587202398747)" x="231.58563232421875"/><path d="M398.13524918963907 495.4745509227242L398.13524918963907 495.4745509227242Q381.71894086090356 495.4745509227242 366.648711289961 490.11949847324365Q351.57848171901844 484.7351834420719 343.3556962638051 476.30755991502053L343.3556962638051 476.30755991502053L349.47157583725556 464.30990142164876Q357.2846851487928 471.88891007965674 370.45284690981055 477.0391244572993Q383.62100867082836 482.21860141663296 398.13524918963907 482.21860141663296L398.13524918963907 482.21860141663296Q412.06423807462676 482.21860141663296 420.78448741858966 478.736354195386Q429.5339993442437 475.25410697413906 433.66002336269594 469.34306547252663Q437.756784799457 463.4612865526054 437.756784799457 456.2919540382735L437.756784799457 456.2919540382735Q437.756784799457 447.65949243938405 432.8114084936526 442.3922277349769Q427.8660321878481 437.1249630305698 419.8480848044728 434.052391952999Q411.83013742109756 431.00908345711935 402.1442228813267 428.69733950351844Q392.45830834155583 426.3855955499175 382.772393801785 423.75196319771396Q373.0864792620141 421.1183308455104 364.9514815518743 416.67041842845555Q356.8457464234255 412.2517685930918 351.90037011762104 404.9946483336864Q346.9549938118166 397.70826549258993 346.9549938118166 385.91544507105624L346.9549938118166 385.91544507105624Q346.9549938118166 374.9712395185659 352.7489849866644 365.8120514492357Q358.54297616151223 356.6236007982144 370.540634654884 351.0637102768958Q382.56755572994695 345.47455717388607 401.2956080122833 345.47455717388607L401.2956080122833 345.47455717388607Q413.73220523102236 345.47455717388607 425.96396437792333 348.95680439513296Q438.16646094313313 352.40978903468874 447.0330231955518 358.5256686081392L447.0330231955518 358.5256686081392L441.76575849114465 370.96226582687825Q432.2846820232119 364.6415481815897 421.63310228763305 361.6860274307835Q411.01078513374534 358.7305066799773 401.0907699404453 358.7305066799773L401.0907699404453 358.7305066799773Q387.834820434354 358.7305066799773 379.17309625377345 362.3298042279888Q370.540634654884 365.89983919430915 366.4438732181229 371.89866844099504Q362.3178491996707 377.9267602693721 362.3178491996707 385.50576892738013L362.3178491996707 385.50576892738013Q362.3178491996707 394.1382305262695 367.2924880871663 399.40549523067665Q372.2378643929708 404.6727599350838 380.3435995214195 407.62828068589Q388.4493346498682 410.5838014366962 398.13524918963907 412.8955453902971Q407.8504263111011 415.20728934389797 417.41929052410734 417.95797202286616Q427.01741731880475 420.6793921201432 435.12315244725346 425.01025421043346Q443.2288875757022 429.31185371903257 448.17426388150665 436.4811862333645Q453.14890276900223 443.6505187476964 453.14890276900223 455.23850109739203L453.14890276900223 455.23850109739203Q453.14890276900223 465.97786857804437 447.23786126738986 475.1370566473745Q441.32681976577743 484.3255072983958 429.21211094564103 489.8853978197144Q417.0974021255047 495.4745509227242 398.13524918963907 495.4745509227242Z " fill="#fca311" transform="matrix(0.5397571461816795,0,0,0.5397571461816795,0,73.04587202398747)"/><path d="M691.5856302569433 464.13195787353334L691.5856302569433 464.13195787353334Q678.5995197574134 464.13195787353334 666.6782240225509 459.895846961922Q654.7569282876884 455.6365879032527 648.2522989643944 448.96992155055284L648.2522989643944 448.96992155055284L653.0902616995133 439.4791812567788Q659.2708169639956 445.4745513447971 669.687483140089 449.5486252270025Q680.1041493161824 453.64584725626594 691.5856302569433 453.64584725626594L691.5856302569433 453.64584725626594Q702.6041482565445 453.64584725626594 709.5022960798241 450.8912177563657Q716.4235920501618 448.13658825646536 719.6874807853378 443.4606625507523Q722.9282213734557 438.80788499209723 722.9282213734557 433.13658896289076L722.9282213734557 433.13658896289076Q722.9282213734557 426.30788558078507 719.0161845206562 422.14121911034766Q715.1041476678565 417.97455263991026 708.7615553739686 415.5439971988218Q702.4189630800806 413.13658990479126 694.7569264038873 411.3078862872104Q687.0948897276942 409.47918266962955 679.432853051501 407.3958494344109Q671.7708163753077 405.3125161991922 665.3356314931877 401.7939978463784Q658.9235947581258 398.29862764062256 655.0115579053262 392.55788717024217Q651.0995210525266 386.79399855280377 651.0995210525266 377.46529528843564L651.0995210525266 377.46529528843564Q651.0995210525266 368.80788828874904 655.6828541700078 361.5625182595995Q660.266187287489 354.2940000833921 669.756927581263 349.89585214237485Q679.270816022095 345.4745560542996 694.0856301392057 345.4745560542996L694.0856301392057 345.4745560542996Q703.9235926388496 345.4745560542996 713.5995181090875 348.2291855541999Q723.2522954322675 350.9606669070422 730.2661839908371 355.79862964216113L730.2661839908371 355.79862964216113L726.0995175203998 365.636592141805Q718.5995178736124 360.6365923772801 710.1735923445057 358.29862952442363Q701.7708149624569 355.9606666715671 693.9235931097999 355.9606666715671L693.9235931097999 355.9606666715671Q683.4374824925324 355.9606666715671 676.5856309633687 358.80788875969927Q669.756927581263 361.6319627007735 666.5161869931451 366.37733284766057Q663.2522982579691 371.1458511416056 663.2522982579691 377.1412212296238L663.2522982579691 377.1412212296238Q663.2522982579691 383.96992461172954 667.1874832578267 388.13659108216694Q671.0995201106261 392.30325755260435 677.5115568456881 394.64122040546084Q683.9235935807501 396.9791832583174 691.5856302569433 398.80788687589825Q699.2708150801946 400.6365904934791 706.8402591681559 402.81251631692976Q714.432851403175 404.9652939933224 720.844888138237 408.39121975790425Q727.256924873299 411.79399737542815 731.1689617260986 417.46529340463456Q735.1041467259561 423.13658943384104 735.1041467259561 432.3032556688033L735.1041467259561 432.3032556688033Q735.1041467259561 440.798625639084 730.428221020243 448.04399566823344Q725.7522953145299 455.3125138444409 716.1689624325239 459.71066178545817Q706.585629550518 464.13195787353334 691.5856302569433 464.13195787353334ZM804.085624958753 374.8032583767673L804.085624958753 374.8032583767673Q814.7569207524842 374.8032583767673 822.8356240757212 378.87733225897273Q830.9374755460161 382.97455428823616 835.5208086634973 391.3078872291109Q840.1041417809784 399.64122016998573 840.1041417809784 412.3032566107038L840.1041417809784 412.3032566107038L840.1041417809784 463.13658755003996L828.2522904872898 463.13658755003996L828.2522904872898 413.4606639636031Q828.2522904872898 399.64122016998573 821.3541426640102 392.55788717024217Q814.4328466936724 385.4745541704986 801.9328472823603 385.4745541704986L801.9328472823603 385.4745541704986Q792.6041440179921 385.4745541704986 785.6828480476545 389.22455399389224Q778.7615520773168 392.9745538172859 775.0115522539231 400.0578868170295Q771.2615524305295 407.14121981677306 771.2615524305295 417.1412193458228L771.2615524305295 417.1412193458228L771.2615524305295 463.13658755003996L759.4328492838988 463.13658755003996L759.4328492838988 375.6365916708547L770.7522931952537 375.6365916708547L770.7522931952537 399.64122016998573L768.9235895776729 395.1273314936785Q773.0902560481104 385.6365911999045 782.2569222830725 380.2199247883359Q791.4235885180349 374.8032583767673 804.085624958753 374.8032583767673ZM938.2522853068369 463.13658755003996L926.932841395482 463.13658755003996L926.932841395482 443.8078847566221L926.4235821602064 440.6365886096781L926.4235821602064 408.29862716967233Q926.4235821602064 397.1412202877233 920.1735824545503 391.145850199705Q913.9235827488942 385.1273319646288 901.5856203669879 385.1273319646288L901.5856203669879 385.1273319646288Q893.0902503967072 385.1273319646288 885.428213720514 387.97455405276105Q877.7661770443208 390.7986279938353 872.4189550739262 395.4745536995483L872.4189550739262 395.4745536995483L867.0948812505895 386.6319615233979Q873.7615476032893 380.9606654941914 883.0902508676575 377.88196193547935Q892.4189541320256 374.8032583767673 902.7661758669451 374.8032583767673L902.7661758669451 374.8032583767673Q919.7569158075066 374.8032583767673 929.0161746307008 383.229183905874Q938.2522853068369 391.63196128792276 938.2522853068369 408.807886404948L938.2522853068369 408.807886404948L938.2522853068369 463.13658755003996ZM896.770805778927 463.9699208441275L896.770805778927 463.9699208441275Q886.9328432792831 463.9699208441275 879.6874732501336 460.7291802560095Q872.4189550739262 457.46529152083355 868.5995108093585 451.7245510504531Q864.756918397733 445.96066243301476 864.756918397733 438.46066278622743L864.756918397733 438.46066278622743Q864.756918397733 431.63195940412174 868.0208071329089 426.0532559631472Q871.2615477210269 420.4745525221727 878.6689547795822 417.04862675759085Q886.0995099851956 413.64584914006696 898.5995093965078 413.64584914006696L898.5995093965078 413.64584914006696L928.7615450130629 413.64584914006696L928.7615450130629 422.46529316915945L898.9235834553195 422.46529316915945Q886.2615470146015 422.46529316915945 881.3541398383086 426.97918184546666Q876.4235845149576 431.4699223747158 876.4235845149576 438.13658872741564L876.4235845149576 438.13658872741564Q876.4235845149576 445.6365883742029 882.25691757357 450.12732890345217Q888.0902506321823 454.6412175797593 898.5995093965078 454.6412175797593L898.5995093965078 454.6412175797593Q908.5995089255575 454.6412175797593 915.8448789547069 450.0578844622782Q923.0902489838566 445.4745513447971 926.4235821602064 436.79399619805247L926.4235821602064 436.79399619805247L929.0856190718747 444.9652921095214Q925.7522858955249 453.64584725626594 917.511545542882 458.8078840501967Q909.2708051902391 463.9699208441275 896.770805778927 463.9699208441275ZM1015.5902446275666 463.9699208441275L1015.5902446275666 463.9699208441275Q1004.2708007162116 463.9699208441275 995.1041344812495 458.7152914619648Q985.9374682462872 453.46066207980203 980.5208018347184 443.55325513898424Q975.10413542315 433.64584819816645 975.10413542315 419.2939970222154L975.10413542315 419.2939970222154Q975.10413542315 404.9652939933224 980.4282092464866 395.0578870525046Q985.7522830698233 385.1273319646288 994.9189493047854 379.965295170698Q1004.0856155397478 374.8032583767673 1015.5902446275666 374.8032583767673L1015.5902446275666 374.8032583767673Q1028.0902440388788 374.8032583767673 1038.0207991267546 380.3819618177418Q1047.9282060675723 385.9606652587163 1053.599502096779 396.053257375998Q1059.2707981259853 406.1458494932797 1059.2707981259853 419.2939970222154L1059.2707981259853 419.2939970222154Q1059.2707981259853 432.6273297276151 1053.599502096779 442.62732925666484Q1047.9282060675723 452.62732878571455 1038.0207991267546 458.298624814921Q1028.0902440388788 463.9699208441275 1015.5902446275666 463.9699208441275ZM982.2569128640674 495.4745489900457L970.4282097174369 495.4745489900457L970.4282097174369 375.6365916708547L981.7708017758498 375.6365916708547L981.7708017758498 401.9791830228423L980.5902462758925 419.4791821986793L982.2569128640674 437.14121840392227L982.2569128640674 495.4745489900457ZM1014.7569113334791 453.46066207980203L1014.7569113334791 453.46066207980203Q1024.0856145978473 453.46066207980203 1031.4235772152288 449.2245511681907Q1038.7615398326102 444.9652921095214 1043.0902433324534 437.21066284509624Q1047.4189468322966 429.47918172772904 1047.4189468322966 419.2939970222154L1047.4189468322966 419.2939970222154Q1047.4189468322966 409.1319604637598 1043.0902433324534 401.4699237875666Q1038.7615398326102 393.80788711137336 1031.4235772152288 389.47918361153006Q1024.0856145978473 385.1273319646288 1014.7569113334791 385.1273319646288L1014.7569113334791 385.1273319646288Q1005.428208069111 385.1273319646288 998.0208010105555 389.47918361153006Q990.5902458049422 393.80788711137336 986.3541348933309 401.4699237875666Q982.0948758346615 409.1319604637598 982.0948758346615 419.2939970222154L982.0948758346615 419.2939970222154Q982.0948758346615 429.47918172772904 986.3541348933309 437.21066284509624Q990.5902458049422 444.9652921095214 998.0208010105555 449.2245511681907Q1005.428208069111 453.46066207980203 1014.7569113334791 453.46066207980203ZM1106.9328329183775 463.9699208441275L1106.9328329183775 463.9699208441275Q1096.0995000952403 463.9699208441275 1086.4235746250022 460.8912172854154Q1076.7707973018223 457.81251372670334 1071.2615383020218 453.13658802099025L1071.2615383020218 453.13658802099025L1076.5856121253585 443.8078847566221Q1081.9328340957532 447.81251419765357 1090.2661670366278 450.7291807269597Q1098.5994999775025 453.64584725626594 1107.766166212465 453.64584725626594L1107.766166212465 453.64584725626594Q1120.266165623777 453.64584725626594 1125.7522764765197 449.7106622564084Q1131.2615354763202 445.79862540360887 1131.2615354763202 439.2939960803149L1131.2615354763202 439.2939960803149Q1131.2615354763202 434.47918149225393 1128.1828319176082 431.72455199235367Q1125.104128358896 428.9699224924534 1120.104128594371 427.55788552191626Q1115.1041288298463 426.1458485513791 1108.9235735653642 425.1273300808278Q1102.7661664479401 424.1319597573344 1096.6782037716898 422.8125153750292Q1090.5902410954395 421.4699228456661 1085.5902413309148 418.8773303751717Q1080.59024156639 416.3078860517353 1077.5115380076777 411.79399737542815Q1074.4328344489659 407.30325684617895 1074.4328344489659 399.8032571993916L1074.4328344489659 399.8032571993916Q1074.4328344489659 392.62733161141614 1078.4374638899972 386.9791837292677Q1082.4189451839707 381.3078877000612 1090.1735744483958 378.04399896488525Q1097.928203712821 374.8032583767673 1109.08561059477 374.8032583767673L1109.08561059477 374.8032583767673Q1117.6041287121088 374.8032583767673 1126.0994986823894 377.0486286413919Q1134.5948686526701 379.29399890601644 1140.1041276524707 382.97455428823616L1140.1041276524707 382.97455428823616L1134.918942711482 392.4652945820102Q1129.0856096528696 388.46066514097873 1122.4189433001698 386.7245541116298Q1115.75227694747 384.9652949352229 1109.08561059477 384.9652949352229L1109.08561059477 384.9652949352229Q1097.2569074481394 384.9652949352229 1091.6782040071648 389.06251696448635Q1086.0995005661905 393.1365908466918 1086.0995005661905 399.47918314057983L1086.0995005661905 399.47918314057983Q1086.0995005661905 404.4791829051047 1089.1782041249025 407.30325684617895Q1092.2569076836146 410.1273307872532 1097.3495000363714 411.7245529342542Q1102.4189442420702 413.29862693419716 1108.5069069183205 414.29399725769053Q1114.5948695945706 415.3125157282419 1120.6828322708209 416.724552698779Q1126.770794947071 418.13658966931615 1131.8402391527698 420.5439969633467Q1136.9328315055268 422.97455240443514 1140.0115350642386 427.39584849251037Q1143.090238622951 431.7939964335276 1143.090238622951 438.9699220215031L1143.090238622951 438.9699220215031Q1143.090238622951 446.6319586976963 1138.8541277113395 452.21066213867084Q1134.5948686526701 457.81251372670334 1126.516165329433 460.8912172854154Q1118.4374620061963 463.9699208441275 1106.9328329183775 463.9699208441275ZM1243.0902339134482 464.13195787353334L1243.0902339134482 464.13195787353334Q1230.1041234139184 464.13195787353334 1218.1828276790557 459.895846961922Q1206.2615319441934 455.6365879032527 1199.7569026208994 448.96992155055284L1199.7569026208994 448.96992155055284L1204.5948653560183 439.4791812567788Q1210.7522724734424 445.4745513447971 1221.168938649536 449.5486252270025Q1231.5856048256294 453.64584725626594 1243.0902339134482 453.64584725626594L1243.0902339134482 453.64584725626594Q1254.0856037659914 453.64584725626594 1261.006899736329 450.8912177563657Q1267.9281957066667 448.13658825646536 1271.1689362947845 443.4606625507523Q1274.4328250299604 438.80788499209723 1274.4328250299604 433.13658896289076L1274.4328250299604 433.13658896289076Q1274.4328250299604 426.30788558078507 1270.520788177161 422.14121911034766Q1266.5856031773035 417.97455263991026 1260.2661590304733 415.5439971988218Q1253.9235667365854 413.13658990479126 1246.2615300603925 411.3078862872104Q1238.5994933841991 409.47918266962955 1230.9374567080058 407.3958494344109Q1223.2522718847547 405.3125161991922 1216.8402351496925 401.7939978463784Q1210.4281984146305 398.29862764062256 1206.5161615618313 392.55788717024217Q1202.6041247090316 386.79399855280377 1202.6041247090316 377.46529528843564L1202.6041247090316 377.46529528843564Q1202.6041247090316 368.80788828874904 1207.1874578265129 361.5625182595995Q1211.7707909439937 354.2940000833921 1221.261531237768 349.89585214237485Q1230.752271531542 345.4745560542996 1245.5902337957107 345.4745560542996L1245.5902337957107 345.4745560542996Q1255.4281962953546 345.4745560542996 1265.1041217655925 348.2291855541999Q1274.7568990887723 350.9606669070422 1281.770787647342 355.79862964216113L1281.770787647342 355.79862964216113L1277.6041211769048 365.636592141805Q1270.1041215301173 360.6365923772801 1261.6781960010107 358.29862952442363Q1253.252270471904 355.9606666715671 1245.4281967663048 355.9606666715671L1245.4281967663048 355.9606666715671Q1234.9189380019793 355.9606666715671 1228.0902346198736 358.80788875969927Q1221.261531237768 361.6319627007735 1218.0207906496498 366.37733284766057Q1214.756901914474 371.1458511416056 1214.756901914474 377.1412212296238L1214.756901914474 377.1412212296238Q1214.756901914474 383.96992461172954 1218.6689387672736 388.13659108216694Q1222.6041237671311 392.30325755260435 1229.016160502193 394.64122040546084Q1235.428197237255 396.9791832583174 1243.0902339134482 398.80788687589825Q1250.7522705896415 400.6365904934791 1258.3448628246606 402.81251631692976Q1265.93745505968 404.9652939933224 1272.3494917947419 408.39121975790425Q1278.7615285298039 411.79399737542815 1282.6735653826033 417.46529340463456Q1286.5856022354028 423.13658943384104 1286.5856022354028 432.3032556688033L1286.5856022354028 432.3032556688033Q1286.5856022354028 440.798625639084 1281.932824676748 448.04399566823344Q1277.2568989710348 455.3125138444409 1267.673566089029 459.71066178545817Q1258.0902332070227 464.13195787353334 1243.0902339134482 464.13195787353334ZM1338.5994886746967 463.9699208441275L1338.5994886746967 463.9699208441275Q1326.2615262927902 463.9699208441275 1319.5948599400904 457.30325449142765Q1312.9281935873905 450.6365881387278 1312.9281935873905 438.46066278622743L1312.9281935873905 438.46066278622743L1312.9281935873905 356.3078888774369L1324.7568967340212 356.3078888774369L1324.7568967340212 437.81251466860385Q1324.7568967340212 445.4745513447971 1328.6689335868207 449.6412178152344Q1332.6041185866782 453.80788428567183 1339.9189330570016 453.80788428567183L1339.9189330570016 453.80788428567183Q1347.7661549096588 453.80788428567183 1352.9281917035896 449.29399560936463L1352.9281917035896 449.29399560936463L1357.094858174027 457.81251372670334Q1353.599487968271 460.96066172658936 1348.66893264492 462.46529128535843Q1343.761525468627 463.9699208441275 1338.5994886746967 463.9699208441275ZM1351.4235621448204 385.4745541704986L1297.2568980291344 385.4745541704986L1297.2568980291344 375.6365916708547L1351.4235621448204 375.6365916708547L1351.4235621448204 385.4745541704986ZM1411.0994852603071 463.9699208441275L1411.0994852603071 463.9699208441275Q1398.437448819589 463.9699208441275 1388.3448567023074 458.22918037374706Q1378.2522645850258 452.46529175630866 1372.4189315264134 442.39584778608497Q1366.585598467801 432.3032556688033 1366.585598467801 419.2939970222154L1366.585598467801 419.2939970222154Q1366.585598467801 406.1458494932797 1372.4189315264134 396.1458499642299Q1378.2522645850258 386.1458504351802 1388.2522641140754 380.4745544059737Q1398.2522636431252 374.8032583767673 1411.0994852603071 374.8032583767673L1411.0994852603071 374.8032583767673Q1424.085595759837 374.8032583767673 1434.1781878771185 380.4745544059737Q1444.2707799944003 386.1458504351802 1450.0115204647807 396.1458499642299Q1455.7522609351613 406.1458494932797 1455.7522609351613 419.2939970222154L1455.7522609351613 419.2939970222154Q1455.7522609351613 432.3032556688033 1450.0115204647807 442.39584778608497Q1444.2707799944003 452.46529175630866 1434.085595288887 458.22918037374706Q1423.923558730431 463.9699208441275 1411.0994852603071 463.9699208441275ZM1411.0994852603071 453.46066207980203L1411.0994852603071 453.46066207980203Q1420.590225554081 453.46066207980203 1427.9281881714624 449.2245511681907Q1435.266150788844 444.9652921095214 1439.5022617004554 437.21066284509624Q1443.7615207591248 429.47918172772904 1443.7615207591248 419.2939970222154L1443.7615207591248 419.2939970222154Q1443.7615207591248 408.96992343435386 1439.5022617004554 401.3078867581607Q1435.266150788844 393.64585008196747 1427.9281881714624 389.38659102329814Q1420.590225554081 385.1273319646288 1411.261522289713 385.1273319646288L1411.261522289713 385.1273319646288Q1401.932819025345 385.1273319646288 1394.5948564079633 389.38659102329814Q1387.2568937905821 393.64585008196747 1382.9281902907387 401.3078867581607Q1378.5994867908953 408.96992343435386 1378.5994867908953 419.2939970222154L1378.5994867908953 419.2939970222154Q1378.5994867908953 429.47918172772904 1382.9281902907387 437.21066284509624Q1387.2568937905821 444.9652921095214 1394.5948564079633 449.2245511681907Q1401.932819025345 453.46066207980203 1411.0994852603071 453.46066207980203ZM1491.7707777573864 463.13658755003996L1479.918926463698 463.13658755003996L1479.918926463698 375.6365916708547L1491.261518522111 375.6365916708547L1491.261518522111 399.47918314057983L1490.1041111692116 395.31251667014243Q1493.7615184043734 385.3125171410927 1502.4189254040598 380.05788775892995Q1511.0994805508044 374.8032583767673 1523.9235540209286 374.8032583767673L1523.9235540209286 374.8032583767673L1523.9235540209286 386.3078874645861Q1523.252257756247 386.3078874645861 1522.6041096386234 386.21529487635416Q1521.9328133739418 386.1458504351802 1521.2615171092602 386.1458504351802L1521.2615171092602 386.1458504351802Q1507.4189251685848 386.1458504351802 1499.5948514629858 394.5486278172289Q1491.7707777573864 402.97455334633565 1491.7707777573864 418.46066372812794L1491.7707777573864 418.46066372812794L1491.7707777573864 463.13658755003996ZM1581.7707735188344 463.9699208441275L1581.7707735188344 463.9699208441275Q1568.090218607565 463.9699208441275 1557.7661450197033 458.22918037374706Q1547.418923284784 452.46529175630866 1541.5855902261715 442.39584778608497Q1535.752257167559 432.3032556688033 1535.752257167559 419.2939970222154L1535.752257167559 419.2939970222154Q1535.752257167559 406.3078865226856 1541.3541087555914 396.3078869936358Q1546.9328121965661 386.3078874645861 1556.678182107978 380.5439988471477Q1566.4235520193897 374.8032583767673 1578.5994773718903 374.8032583767673L1578.5994773718903 374.8032583767673Q1590.9374397537965 374.8032583767673 1600.5207726358026 380.3819618177418Q1610.1041055178084 385.9606652587163 1615.590216370551 396.053257375998Q1621.0994753703517 406.1458494932797 1621.0994753703517 419.2939970222154L1621.0994753703517 419.2939970222154Q1621.0994753703517 420.1273303163029 1621.0068827821196 421.0532561986223Q1620.9374383409458 421.97918208094177 1620.9374383409458 422.97455240443514L1620.9374383409458 422.97455240443514L1544.7568863731155 422.97455240443514L1544.7568863731155 414.13196022828464L1614.5948460470577 414.13196022828464L1609.9189203413446 417.62733043404046Q1609.9189203413446 408.13659014026643 1605.8448464591393 400.729183081711Q1601.7707725769337 393.29862787609767 1594.756884018364 389.1319614056603Q1587.7661436068524 384.9652949352229 1578.5994773718903 384.9652949352229L1578.5994773718903 384.9652949352229Q1569.5948481663338 384.9652949352229 1562.4189225783584 389.1319614056603Q1555.2661451374408 393.29862787609767 1551.2615156964093 400.798627522885Q1547.256886255378 408.29862716967233 1547.256886255378 417.97455263991026L1547.256886255378 417.97455263991026L1547.256886255378 419.8032562574911Q1547.256886255378 429.80325578654083 1551.6781823434533 437.3958480215601Q1556.0994784315285 444.9652921095214 1564.0161447253595 449.2245511681907Q1571.9328110191905 453.46066207980203 1582.0948475776463 453.46066207980203L1582.0948475776463 453.46066207980203Q1590.104106459709 453.46066207980203 1597.0022542829888 450.6365881387278Q1603.9235502533265 447.81251419765357 1608.9235500178513 441.9791811390412L1608.9235500178513 441.9791811390412L1615.590216370551 449.6412178152344Q1609.7568833119387 456.63195822674606 1601.0068837240203 460.3125136089658Q1592.2568841361017 463.9699208441275 1581.7707735188344 463.9699208441275Z " fill="#fca311" transform="matrix(0.5397571461816795,0,0,0.5397571461816795,0,73.04587202398747)"/></g></svg>